<svg width="35" height="46" viewBox="0 0 35 46" fill="none" xmlns="http://www.w3.org/2000/svg">
<path d="M32.1975 8.40913L29.582 10.6185C30.9031 12.8827 31.6667 15.547 31.6667 18.3987C31.6667 26.6245 25.3247 33.294 17.5 33.294C9.67527 33.294 3.33327 26.6258 3.33327 18.3987C3.33327 10.1715 9.67527 3.50336 17.5 3.50336C20.2122 3.50336 22.7449 4.30493 24.8996 5.6953L27.0009 2.94534C24.2645 1.08259 21.0025 0 17.5 0C7.83491 0 0 8.23785 0 18.4C0 32.6182 17.5 46 17.5 46C17.5 46 35 32.6182 35 18.4C35 14.7173 33.9704 11.2876 32.1987 8.41047L32.1975 8.40913Z" fill="#00FF11"/>
<path d="M24.3015 15.0786C24.7482 16.0876 24.9989 17.2117 24.9989 18.3987C24.9989 22.7544 21.6415 26.2846 17.4987 26.2846C13.356 26.2846 9.99855 22.7544 9.99855 18.3987C9.99855 14.0429 13.356 10.5128 17.4987 10.5128C18.6276 10.5128 19.6967 10.7764 20.6564 11.2461L22.7869 8.45865C21.2227 7.53664 19.4205 7.0094 17.4987 7.0094C11.5156 7.0094 6.66527 12.1092 6.66527 18.4C6.66527 24.6908 11.5156 29.7906 17.4987 29.7906C23.4818 29.7906 28.3322 24.6908 28.3322 18.4C28.3322 16.3807 27.8307 14.4845 26.9538 12.8399L24.3027 15.08L24.3015 15.0786Z" fill="#00FF11"/>
<path d="M17.4987 21.0268C18.8792 21.0268 19.9984 19.8502 19.9984 18.3987C19.9984 16.9472 18.8792 15.7705 17.4987 15.7705C16.1182 15.7705 14.9991 16.9472 14.9991 18.3987C14.9991 19.8502 16.1182 21.0268 17.4987 21.0268Z" fill="#00FF11"/>
<path d="M33.4969 5.76756C33.6815 5.611 33.6955 5.31927 33.5249 5.13996L30.1089 1.54828C29.9384 1.36896 29.6609 1.38368 29.512 1.57772L16.2222 18.9701C15.7869 19.5401 16.4118 20.1985 16.954 19.7395L33.4956 5.76622L33.4969 5.76756Z" fill="#00FF11"/>
</svg>
